<?xml version="1.0" standalone="no"?>
<!DOCTYPE svg PUBLIC "-//W3C//DTD SVG 20010904//EN"
 "http://www.w3.org/TR/2001/REC-SVG-20010904/DTD/svg10.dtd">
<svg version="1.0" xmlns="http://www.w3.org/2000/svg"
 width="512.000000pt" height="512.000000pt" viewBox="0 0 512.000000 512.000000"
 preserveAspectRatio="xMidYMid meet">
<metadata>
Created by potrace 1.11, written by Peter Selinger 2001-2013
</metadata>
<g transform="translate(0.000000,512.000000) scale(0.100000,-0.100000)"
fill="#000000" stroke="none">
<path d="M436 5104 c-153 -37 -308 -159 -374 -295 -66 -136 -62 15 -62 -2249
0 -2264 -4 -2113 62 -2249 44 -90 159 -205 249 -249 136 -66 -15 -62 2249 -62
2264 0 2113 -4 2249 62 90 44 205 159 249 249 66 136 62 -15 62 2249 0 2264 4
2113 -62 2249 -44 90 -159 205 -249 249 -137 66 16 62 -2254 61 -1749 -1
-2069 -3 -2119 -15z"/>
</g>
</svg>
